<mxfile host="app.diagrams.net" modified="2022-04-24T08:45:17.250Z" agent="5.0 (Macintosh; Intel Mac OS X 10_15_7) AppleWebKit/537.36 (KHTML, like Gecko) Chrome/99.0.4844.51 Safari/537.36" etag="ujNUiDwBz8ajJsG-wRRR" version="17.2.1" type="github" pages="7">
  <diagram id="1FRI5q-vuVcoWc9iL7Ts" name="AI管理平台V1.0">
    <mxGraphModel dx="1426" dy="826" grid="1" gridSize="10" guides="1" tooltips="1" connect="1" arrows="1" fold="1" page="1" pageScale="1" pageWidth="827" pageHeight="1169" math="0" shadow="0">
      <root>
        <mxCell id="0" />
        <mxCell id="1" parent="0" />
        <mxCell id="ciWhE_8d9RQ1g5QnIg8F-4" value="" style="rounded=0;whiteSpace=wrap;html=1;dashed=1;" parent="1" vertex="1">
          <mxGeometry x="520" y="415" width="270" height="340" as="geometry" />
        </mxCell>
        <mxCell id="ciWhE_8d9RQ1g5QnIg8F-5" value="训练机" style="rounded=0;whiteSpace=wrap;html=1;" parent="1" vertex="1">
          <mxGeometry x="550" y="445" width="210" height="70" as="geometry" />
        </mxCell>
        <mxCell id="ciWhE_8d9RQ1g5QnIg8F-7" value="推理机" style="rounded=0;whiteSpace=wrap;html=1;" parent="1" vertex="1">
          <mxGeometry x="550" y="545" width="210" height="70" as="geometry" />
        </mxCell>
        <mxCell id="ciWhE_8d9RQ1g5QnIg8F-8" value="&lt;span&gt;推理机&lt;/span&gt;" style="rounded=0;whiteSpace=wrap;html=1;" parent="1" vertex="1">
          <mxGeometry x="550" y="655" width="210" height="70" as="geometry" />
        </mxCell>
        <mxCell id="ciWhE_8d9RQ1g5QnIg8F-9" value="agent-client" style="rounded=1;whiteSpace=wrap;html=1;" parent="1" vertex="1">
          <mxGeometry x="540" y="495" width="80" height="30" as="geometry" />
        </mxCell>
        <mxCell id="ciWhE_8d9RQ1g5QnIg8F-10" value="agent-client" style="rounded=1;whiteSpace=wrap;html=1;" parent="1" vertex="1">
          <mxGeometry x="540" y="595" width="80" height="30" as="geometry" />
        </mxCell>
        <mxCell id="ciWhE_8d9RQ1g5QnIg8F-11" value="agent-client" style="rounded=1;whiteSpace=wrap;html=1;" parent="1" vertex="1">
          <mxGeometry x="540" y="705" width="80" height="30" as="geometry" />
        </mxCell>
        <mxCell id="ciWhE_8d9RQ1g5QnIg8F-13" value="" style="rounded=0;whiteSpace=wrap;html=1;dashed=1;" parent="1" vertex="1">
          <mxGeometry x="120" y="415" width="270" height="340" as="geometry" />
        </mxCell>
        <mxCell id="ciWhE_8d9RQ1g5QnIg8F-15" value="执行引擎服务" style="rounded=0;whiteSpace=wrap;html=1;" parent="1" vertex="1">
          <mxGeometry x="150" y="445" width="210" height="70" as="geometry" />
        </mxCell>
        <mxCell id="ciWhE_8d9RQ1g5QnIg8F-16" value="执行引擎服务" style="rounded=0;whiteSpace=wrap;html=1;" parent="1" vertex="1">
          <mxGeometry x="150" y="550" width="210" height="70" as="geometry" />
        </mxCell>
        <mxCell id="ciWhE_8d9RQ1g5QnIg8F-17" value="执行引擎服务" style="rounded=0;whiteSpace=wrap;html=1;" parent="1" vertex="1">
          <mxGeometry x="150" y="655" width="210" height="70" as="geometry" />
        </mxCell>
        <mxCell id="ciWhE_8d9RQ1g5QnIg8F-18" value="agent-server" style="rounded=1;whiteSpace=wrap;html=1;" parent="1" vertex="1">
          <mxGeometry x="290" y="495" width="80" height="30" as="geometry" />
        </mxCell>
        <mxCell id="ciWhE_8d9RQ1g5QnIg8F-19" value="agent-server" style="rounded=1;whiteSpace=wrap;html=1;" parent="1" vertex="1">
          <mxGeometry x="290" y="595" width="80" height="30" as="geometry" />
        </mxCell>
        <mxCell id="ciWhE_8d9RQ1g5QnIg8F-20" value="agent-server" style="rounded=1;whiteSpace=wrap;html=1;" parent="1" vertex="1">
          <mxGeometry x="290" y="705" width="80" height="30" as="geometry" />
        </mxCell>
        <mxCell id="ciWhE_8d9RQ1g5QnIg8F-26" value="" style="endArrow=classic;startArrow=classic;html=1;rounded=0;entryX=0;entryY=0.5;entryDx=0;entryDy=0;exitX=1;exitY=0.5;exitDx=0;exitDy=0;" parent="1" source="ciWhE_8d9RQ1g5QnIg8F-18" target="ciWhE_8d9RQ1g5QnIg8F-9" edge="1">
          <mxGeometry width="50" height="50" relative="1" as="geometry">
            <mxPoint x="160" y="610" as="sourcePoint" />
            <mxPoint x="210" y="560" as="targetPoint" />
          </mxGeometry>
        </mxCell>
        <mxCell id="ciWhE_8d9RQ1g5QnIg8F-29" value="" style="endArrow=classic;startArrow=classic;html=1;rounded=0;entryX=0;entryY=0.5;entryDx=0;entryDy=0;exitX=1;exitY=0.5;exitDx=0;exitDy=0;" parent="1" edge="1">
          <mxGeometry width="50" height="50" relative="1" as="geometry">
            <mxPoint x="370" y="609.5" as="sourcePoint" />
            <mxPoint x="540" y="609.5" as="targetPoint" />
          </mxGeometry>
        </mxCell>
        <mxCell id="ciWhE_8d9RQ1g5QnIg8F-30" value="" style="endArrow=classic;startArrow=classic;html=1;rounded=0;entryX=0;entryY=0.5;entryDx=0;entryDy=0;exitX=1;exitY=0.5;exitDx=0;exitDy=0;" parent="1" edge="1">
          <mxGeometry width="50" height="50" relative="1" as="geometry">
            <mxPoint x="370" y="719" as="sourcePoint" />
            <mxPoint x="540" y="719" as="targetPoint" />
          </mxGeometry>
        </mxCell>
      </root>
    </mxGraphModel>
  </diagram>
  <diagram id="ktpTZzF3PVW1PyB_Zpyw" name="AI管理平台整体框架">
    <mxGraphModel dx="1426" dy="826" grid="1" gridSize="10" guides="1" tooltips="1" connect="1" arrows="1" fold="1" page="1" pageScale="1" pageWidth="827" pageHeight="1169" math="0" shadow="0">
      <root>
        <mxCell id="0" />
        <mxCell id="1" parent="0" />
        <mxCell id="gNmZepQrkLeLRpJlOO_u-3" value="" style="rounded=0;whiteSpace=wrap;html=1;fontSize=16;" parent="1" vertex="1">
          <mxGeometry x="270" y="251" width="1000" height="260" as="geometry" />
        </mxCell>
        <mxCell id="gNmZepQrkLeLRpJlOO_u-4" value="" style="rounded=0;whiteSpace=wrap;html=1;fontSize=16;" parent="1" vertex="1">
          <mxGeometry x="270" y="530" width="1000" height="250" as="geometry" />
        </mxCell>
        <mxCell id="gNmZepQrkLeLRpJlOO_u-5" value="" style="rounded=0;whiteSpace=wrap;html=1;fontSize=16;" parent="1" vertex="1">
          <mxGeometry x="270" y="800" width="1000" height="215" as="geometry" />
        </mxCell>
        <mxCell id="gNmZepQrkLeLRpJlOO_u-8" value="" style="rounded=1;whiteSpace=wrap;html=1;fontSize=16;arcSize=11;dashed=1;fillColor=#f5f5f5;fontColor=#333333;strokeColor=#666666;" parent="1" vertex="1">
          <mxGeometry x="1000" y="816" width="240" height="179" as="geometry" />
        </mxCell>
        <mxCell id="gNmZepQrkLeLRpJlOO_u-9" value="训练机器" style="rounded=0;whiteSpace=wrap;html=1;fontSize=16;fillColor=#fff2cc;strokeColor=#d6b656;" parent="1" vertex="1">
          <mxGeometry x="1024" y="836" width="88" height="50" as="geometry" />
        </mxCell>
        <mxCell id="gNmZepQrkLeLRpJlOO_u-10" value="训练机器" style="rounded=0;whiteSpace=wrap;html=1;fontSize=16;fillColor=#fff2cc;strokeColor=#d6b656;" parent="1" vertex="1">
          <mxGeometry x="1126" y="836" width="90" height="50" as="geometry" />
        </mxCell>
        <mxCell id="gNmZepQrkLeLRpJlOO_u-11" value="推理机器" style="rounded=0;whiteSpace=wrap;html=1;fontSize=16;fillColor=#fff2cc;strokeColor=#d6b656;" parent="1" vertex="1">
          <mxGeometry x="1024" y="896" width="88" height="50" as="geometry" />
        </mxCell>
        <mxCell id="gNmZepQrkLeLRpJlOO_u-12" value="推理机器" style="rounded=0;whiteSpace=wrap;html=1;fontSize=16;fillColor=#fff2cc;strokeColor=#d6b656;" parent="1" vertex="1">
          <mxGeometry x="1126" y="896" width="90" height="50" as="geometry" />
        </mxCell>
        <mxCell id="gNmZepQrkLeLRpJlOO_u-13" value="" style="rounded=1;whiteSpace=wrap;html=1;fontSize=16;arcSize=11;dashed=1;fillColor=#f5f5f5;fontColor=#333333;strokeColor=#666666;" parent="1" vertex="1">
          <mxGeometry x="350" y="815" width="370" height="180" as="geometry" />
        </mxCell>
        <mxCell id="gNmZepQrkLeLRpJlOO_u-14" value="" style="shape=cylinder3;whiteSpace=wrap;html=1;boundedLbl=1;backgroundOutline=1;size=15;fontSize=16;fillColor=#fff2cc;strokeColor=#d6b656;" parent="1" vertex="1">
          <mxGeometry x="365" y="846" width="70" height="80" as="geometry" />
        </mxCell>
        <mxCell id="gNmZepQrkLeLRpJlOO_u-15" value="" style="shape=document;whiteSpace=wrap;html=1;boundedLbl=1;fontSize=16;fillColor=#fff2cc;strokeColor=#d6b656;" parent="1" vertex="1">
          <mxGeometry x="565" y="857.5" width="120" height="80" as="geometry" />
        </mxCell>
        <mxCell id="gNmZepQrkLeLRpJlOO_u-16" value="" style="shape=document;whiteSpace=wrap;html=1;boundedLbl=1;fontSize=16;fillColor=#fff2cc;strokeColor=#d6b656;" parent="1" vertex="1">
          <mxGeometry x="575" y="867.5" width="120" height="80" as="geometry" />
        </mxCell>
        <mxCell id="gNmZepQrkLeLRpJlOO_u-17" value="分布式文件存储" style="shape=document;whiteSpace=wrap;html=1;boundedLbl=1;fontSize=16;fillColor=#fff2cc;strokeColor=#d6b656;" parent="1" vertex="1">
          <mxGeometry x="585" y="877.5" width="120" height="80" as="geometry" />
        </mxCell>
        <mxCell id="gNmZepQrkLeLRpJlOO_u-18" value="MySQL" style="shape=cylinder3;whiteSpace=wrap;html=1;boundedLbl=1;backgroundOutline=1;size=15;fontSize=16;fillColor=#fff2cc;strokeColor=#d6b656;" parent="1" vertex="1">
          <mxGeometry x="375" y="856" width="70" height="80" as="geometry" />
        </mxCell>
        <mxCell id="gNmZepQrkLeLRpJlOO_u-22" value="" style="rounded=1;whiteSpace=wrap;html=1;fontSize=16;arcSize=6;dashed=1;fillColor=#f5f5f5;fontColor=#333333;strokeColor=#666666;" parent="1" vertex="1">
          <mxGeometry x="350" y="281" width="200" height="210" as="geometry" />
        </mxCell>
        <mxCell id="gNmZepQrkLeLRpJlOO_u-23" value="数据导入" style="rounded=0;whiteSpace=wrap;html=1;fontSize=16;fillColor=#d5e8d4;strokeColor=#82b366;" parent="1" vertex="1">
          <mxGeometry x="370" y="301" width="160" height="40" as="geometry" />
        </mxCell>
        <mxCell id="gNmZepQrkLeLRpJlOO_u-24" value="数据集管理" style="text;html=1;strokeColor=none;fillColor=none;align=center;verticalAlign=middle;whiteSpace=wrap;rounded=0;fontSize=16;fontStyle=1" parent="1" vertex="1">
          <mxGeometry x="400" y="459" width="90" height="30" as="geometry" />
        </mxCell>
        <mxCell id="gNmZepQrkLeLRpJlOO_u-25" value="数据清洗" style="rounded=0;whiteSpace=wrap;html=1;fontSize=16;fillColor=#d5e8d4;strokeColor=#82b366;" parent="1" vertex="1">
          <mxGeometry x="370" y="356" width="160" height="40" as="geometry" />
        </mxCell>
        <mxCell id="gNmZepQrkLeLRpJlOO_u-26" value="数据标注" style="rounded=0;whiteSpace=wrap;html=1;fontSize=16;fillColor=#d5e8d4;strokeColor=#82b366;" parent="1" vertex="1">
          <mxGeometry x="370" y="411" width="160" height="40" as="geometry" />
        </mxCell>
        <mxCell id="gNmZepQrkLeLRpJlOO_u-33" value="" style="rounded=1;whiteSpace=wrap;html=1;fontSize=16;arcSize=6;dashed=1;fillColor=#f5f5f5;fontColor=#333333;strokeColor=#666666;" parent="1" vertex="1">
          <mxGeometry x="578" y="281" width="200" height="210" as="geometry" />
        </mxCell>
        <mxCell id="gNmZepQrkLeLRpJlOO_u-34" value="模型列表" style="rounded=0;whiteSpace=wrap;html=1;fontSize=16;fillColor=#d5e8d4;strokeColor=#82b366;" parent="1" vertex="1">
          <mxGeometry x="598" y="301" width="160" height="40" as="geometry" />
        </mxCell>
        <mxCell id="gNmZepQrkLeLRpJlOO_u-35" value="训练管理" style="text;html=1;strokeColor=none;fillColor=none;align=center;verticalAlign=middle;whiteSpace=wrap;rounded=0;fontSize=16;fontStyle=1" parent="1" vertex="1">
          <mxGeometry x="633" y="459" width="90" height="30" as="geometry" />
        </mxCell>
        <mxCell id="gNmZepQrkLeLRpJlOO_u-36" value="创建模型" style="rounded=0;whiteSpace=wrap;html=1;fontSize=16;fillColor=#d5e8d4;strokeColor=#82b366;" parent="1" vertex="1">
          <mxGeometry x="598" y="356" width="160" height="40" as="geometry" />
        </mxCell>
        <mxCell id="gNmZepQrkLeLRpJlOO_u-37" value="训练日志" style="rounded=0;whiteSpace=wrap;html=1;fontSize=16;fillColor=#d5e8d4;strokeColor=#82b366;" parent="1" vertex="1">
          <mxGeometry x="598" y="411" width="160" height="40" as="geometry" />
        </mxCell>
        <mxCell id="gNmZepQrkLeLRpJlOO_u-38" value="" style="rounded=1;whiteSpace=wrap;html=1;fontSize=16;arcSize=6;dashed=1;fillColor=#f5f5f5;fontColor=#333333;strokeColor=#666666;" parent="1" vertex="1">
          <mxGeometry x="810" y="281" width="200" height="210" as="geometry" />
        </mxCell>
        <mxCell id="gNmZepQrkLeLRpJlOO_u-39" value="推理服务" style="rounded=0;whiteSpace=wrap;html=1;fontSize=16;fillColor=#d5e8d4;strokeColor=#82b366;" parent="1" vertex="1">
          <mxGeometry x="830" y="301" width="160" height="40" as="geometry" />
        </mxCell>
        <mxCell id="gNmZepQrkLeLRpJlOO_u-40" value="推理管理" style="text;html=1;strokeColor=none;fillColor=none;align=center;verticalAlign=middle;whiteSpace=wrap;rounded=0;fontSize=16;fontStyle=1" parent="1" vertex="1">
          <mxGeometry x="865" y="459" width="90" height="30" as="geometry" />
        </mxCell>
        <mxCell id="gNmZepQrkLeLRpJlOO_u-41" value="服务发布" style="rounded=0;whiteSpace=wrap;html=1;fontSize=16;fillColor=#d5e8d4;strokeColor=#82b366;" parent="1" vertex="1">
          <mxGeometry x="830" y="356" width="160" height="40" as="geometry" />
        </mxCell>
        <mxCell id="gNmZepQrkLeLRpJlOO_u-42" value="服务测试" style="rounded=0;whiteSpace=wrap;html=1;fontSize=16;fillColor=#d5e8d4;strokeColor=#82b366;" parent="1" vertex="1">
          <mxGeometry x="830" y="411" width="160" height="40" as="geometry" />
        </mxCell>
        <mxCell id="gNmZepQrkLeLRpJlOO_u-43" value="" style="rounded=1;whiteSpace=wrap;html=1;fontSize=16;arcSize=6;dashed=1;fillColor=#f5f5f5;fontColor=#333333;strokeColor=#666666;" parent="1" vertex="1">
          <mxGeometry x="1040" y="281" width="200" height="210" as="geometry" />
        </mxCell>
        <mxCell id="gNmZepQrkLeLRpJlOO_u-44" value="用户管理" style="rounded=0;whiteSpace=wrap;html=1;fontSize=16;fillColor=#d5e8d4;strokeColor=#82b366;" parent="1" vertex="1">
          <mxGeometry x="1060" y="301" width="160" height="40" as="geometry" />
        </mxCell>
        <mxCell id="gNmZepQrkLeLRpJlOO_u-45" value="基础管理" style="text;html=1;strokeColor=none;fillColor=none;align=center;verticalAlign=middle;whiteSpace=wrap;rounded=0;fontSize=16;fontStyle=1" parent="1" vertex="1">
          <mxGeometry x="1090" y="459" width="90" height="30" as="geometry" />
        </mxCell>
        <mxCell id="gNmZepQrkLeLRpJlOO_u-46" value="机器管理" style="rounded=0;whiteSpace=wrap;html=1;fontSize=16;fillColor=#d5e8d4;strokeColor=#82b366;" parent="1" vertex="1">
          <mxGeometry x="1060" y="356" width="160" height="40" as="geometry" />
        </mxCell>
        <mxCell id="gNmZepQrkLeLRpJlOO_u-47" value="脚本管理" style="rounded=0;whiteSpace=wrap;html=1;fontSize=16;fillColor=#d5e8d4;strokeColor=#82b366;" parent="1" vertex="1">
          <mxGeometry x="1060" y="411" width="160" height="40" as="geometry" />
        </mxCell>
        <mxCell id="gNmZepQrkLeLRpJlOO_u-48" value="" style="shape=cylinder3;whiteSpace=wrap;html=1;boundedLbl=1;backgroundOutline=1;size=15;fontSize=16;fillColor=#fff2cc;strokeColor=#d6b656;" parent="1" vertex="1">
          <mxGeometry x="465" y="851" width="70" height="80" as="geometry" />
        </mxCell>
        <mxCell id="gNmZepQrkLeLRpJlOO_u-49" value="Redis" style="shape=cylinder3;whiteSpace=wrap;html=1;boundedLbl=1;backgroundOutline=1;size=15;fontSize=16;fillColor=#fff2cc;strokeColor=#d6b656;" parent="1" vertex="1">
          <mxGeometry x="475" y="861" width="70" height="80" as="geometry" />
        </mxCell>
        <mxCell id="gNmZepQrkLeLRpJlOO_u-52" value="&lt;span style=&quot;font-weight: 700&quot;&gt;&lt;font style=&quot;font-size: 24px&quot;&gt;AI统一管控平台V1.0&lt;/font&gt;&lt;/span&gt;" style="rounded=0;whiteSpace=wrap;html=1;fontSize=16;" parent="1" vertex="1">
          <mxGeometry x="270" y="171" width="1000" height="60" as="geometry" />
        </mxCell>
        <mxCell id="gNmZepQrkLeLRpJlOO_u-53" value="存储组件" style="text;html=1;strokeColor=none;fillColor=none;align=center;verticalAlign=middle;whiteSpace=wrap;rounded=0;fontSize=16;fontStyle=1" parent="1" vertex="1">
          <mxGeometry x="490" y="957.5" width="90" height="30" as="geometry" />
        </mxCell>
        <mxCell id="gNmZepQrkLeLRpJlOO_u-54" value="GPU资源" style="text;html=1;strokeColor=none;fillColor=none;align=center;verticalAlign=middle;whiteSpace=wrap;rounded=0;fontSize=16;fontStyle=1" parent="1" vertex="1">
          <mxGeometry x="1070" y="957.5" width="90" height="30" as="geometry" />
        </mxCell>
        <mxCell id="gNmZepQrkLeLRpJlOO_u-55" value="" style="rounded=1;whiteSpace=wrap;html=1;fontSize=16;arcSize=6;dashed=1;fillColor=#f5f5f5;fontColor=#333333;strokeColor=#666666;" parent="1" vertex="1">
          <mxGeometry x="350" y="546.5" width="310" height="223.5" as="geometry" />
        </mxCell>
        <mxCell id="gNmZepQrkLeLRpJlOO_u-56" value="引擎接口" style="text;html=1;strokeColor=none;fillColor=none;align=center;verticalAlign=middle;whiteSpace=wrap;rounded=0;fontSize=16;fontStyle=1" parent="1" vertex="1">
          <mxGeometry x="460" y="733" width="90" height="30" as="geometry" />
        </mxCell>
        <mxCell id="gNmZepQrkLeLRpJlOO_u-59" value="" style="rounded=1;whiteSpace=wrap;html=1;fontSize=16;arcSize=6;dashed=1;fillColor=#f5f5f5;fontColor=#333333;strokeColor=#666666;" parent="1" vertex="1">
          <mxGeometry x="690" y="546.5" width="280" height="223.5" as="geometry" />
        </mxCell>
        <mxCell id="gNmZepQrkLeLRpJlOO_u-60" value="业&lt;br style=&quot;font-size: 18px;&quot;&gt;务&lt;br style=&quot;font-size: 18px;&quot;&gt;层" style="text;html=1;strokeColor=none;fillColor=none;align=center;verticalAlign=middle;whiteSpace=wrap;rounded=0;fontSize=18;fontStyle=1" parent="1" vertex="1">
          <mxGeometry x="273" y="356" width="60" height="30" as="geometry" />
        </mxCell>
        <mxCell id="gNmZepQrkLeLRpJlOO_u-67" value="核&lt;br&gt;心&lt;br&gt;层" style="text;html=1;strokeColor=none;fillColor=none;align=center;verticalAlign=middle;whiteSpace=wrap;rounded=0;fontSize=18;fontStyle=1" parent="1" vertex="1">
          <mxGeometry x="273" y="640" width="60" height="30" as="geometry" />
        </mxCell>
        <mxCell id="gNmZepQrkLeLRpJlOO_u-68" value="资&lt;br&gt;源&lt;br&gt;层" style="text;html=1;strokeColor=none;fillColor=none;align=center;verticalAlign=middle;whiteSpace=wrap;rounded=0;fontSize=18;fontStyle=1" parent="1" vertex="1">
          <mxGeometry x="273" y="886" width="60" height="30" as="geometry" />
        </mxCell>
        <mxCell id="gNmZepQrkLeLRpJlOO_u-69" value="Agent服务端" style="text;html=1;strokeColor=none;fillColor=none;align=center;verticalAlign=middle;whiteSpace=wrap;rounded=0;fontSize=16;fontStyle=1" parent="1" vertex="1">
          <mxGeometry x="778" y="733" width="110" height="30" as="geometry" />
        </mxCell>
        <mxCell id="gNmZepQrkLeLRpJlOO_u-70" value="执行日志服务" style="rounded=0;whiteSpace=wrap;html=1;fontSize=16;fillColor=#ffe6cc;strokeColor=#d79b00;" parent="1" vertex="1">
          <mxGeometry x="365" y="570" width="275" height="56" as="geometry" />
        </mxCell>
        <mxCell id="gNmZepQrkLeLRpJlOO_u-75" value="" style="rounded=1;whiteSpace=wrap;html=1;fontSize=16;arcSize=11;dashed=1;fillColor=#f5f5f5;fontColor=#333333;strokeColor=#666666;" parent="1" vertex="1">
          <mxGeometry x="740" y="815" width="240" height="179" as="geometry" />
        </mxCell>
        <mxCell id="gNmZepQrkLeLRpJlOO_u-76" value="镜像资源" style="text;html=1;strokeColor=none;fillColor=none;align=center;verticalAlign=middle;whiteSpace=wrap;rounded=0;fontSize=16;fontStyle=1" parent="1" vertex="1">
          <mxGeometry x="815" y="957.5" width="90" height="30" as="geometry" />
        </mxCell>
        <mxCell id="gNmZepQrkLeLRpJlOO_u-77" value="训练镜像" style="rounded=0;whiteSpace=wrap;html=1;fontSize=16;fillColor=#fff2cc;strokeColor=#d6b656;" parent="1" vertex="1">
          <mxGeometry x="760" y="836" width="90" height="50" as="geometry" />
        </mxCell>
        <mxCell id="gNmZepQrkLeLRpJlOO_u-78" value="推理镜像" style="rounded=0;whiteSpace=wrap;html=1;fontSize=16;fillColor=#fff2cc;strokeColor=#d6b656;" parent="1" vertex="1">
          <mxGeometry x="870" y="836" width="90" height="50" as="geometry" />
        </mxCell>
        <mxCell id="gNmZepQrkLeLRpJlOO_u-79" value="其他镜像" style="rounded=0;whiteSpace=wrap;html=1;fontSize=16;fillColor=#fff2cc;strokeColor=#d6b656;" parent="1" vertex="1">
          <mxGeometry x="760" y="897.5" width="200" height="50" as="geometry" />
        </mxCell>
        <mxCell id="gNmZepQrkLeLRpJlOO_u-87" value="" style="rounded=1;whiteSpace=wrap;html=1;fontSize=16;arcSize=6;dashed=1;fillColor=#f5f5f5;fontColor=#333333;strokeColor=#666666;" parent="1" vertex="1">
          <mxGeometry x="1000" y="546.5" width="240" height="223.5" as="geometry" />
        </mxCell>
        <mxCell id="gNmZepQrkLeLRpJlOO_u-88" value="Agent客户端" style="text;html=1;strokeColor=none;fillColor=none;align=center;verticalAlign=middle;whiteSpace=wrap;rounded=0;fontSize=16;fontStyle=1" parent="1" vertex="1">
          <mxGeometry x="1065" y="733" width="110" height="30" as="geometry" />
        </mxCell>
        <mxCell id="gNmZepQrkLeLRpJlOO_u-89" value="Agent管理" style="rounded=0;whiteSpace=wrap;html=1;fontSize=16;fillColor=#ffe6cc;strokeColor=#d79b00;" parent="1" vertex="1">
          <mxGeometry x="705" y="570" width="245" height="60" as="geometry" />
        </mxCell>
        <mxCell id="gNmZepQrkLeLRpJlOO_u-94" value="网络通信" style="rounded=0;whiteSpace=wrap;html=1;fontSize=16;fillColor=#ffe6cc;strokeColor=#d79b00;" parent="1" vertex="1">
          <mxGeometry x="1024" y="652" width="96" height="60" as="geometry" />
        </mxCell>
        <mxCell id="gNmZepQrkLeLRpJlOO_u-95" value="脚本引擎" style="rounded=0;whiteSpace=wrap;html=1;fontSize=16;fillColor=#ffe6cc;strokeColor=#d79b00;" parent="1" vertex="1">
          <mxGeometry x="1140" y="650" width="86" height="60" as="geometry" />
        </mxCell>
        <mxCell id="gNmZepQrkLeLRpJlOO_u-96" style="edgeStyle=orthogonalEdgeStyle;rounded=0;orthogonalLoop=1;jettySize=auto;html=1;exitX=0.5;exitY=1;exitDx=0;exitDy=0;fontSize=18;" parent="1" source="gNmZepQrkLeLRpJlOO_u-88" target="gNmZepQrkLeLRpJlOO_u-88" edge="1">
          <mxGeometry relative="1" as="geometry" />
        </mxCell>
        <mxCell id="gNmZepQrkLeLRpJlOO_u-102" value="网络通信" style="rounded=0;whiteSpace=wrap;html=1;fontSize=16;fillColor=#ffe6cc;strokeColor=#d79b00;" parent="1" vertex="1">
          <mxGeometry x="706.25" y="650" width="243.75" height="60" as="geometry" />
        </mxCell>
        <mxCell id="gNmZepQrkLeLRpJlOO_u-103" value="数据采集" style="rounded=0;whiteSpace=wrap;html=1;fontSize=16;fillColor=#ffe6cc;strokeColor=#d79b00;" parent="1" vertex="1">
          <mxGeometry x="1022" y="570" width="204" height="60" as="geometry" />
        </mxCell>
        <mxCell id="gNmZepQrkLeLRpJlOO_u-105" value="请求下发服务" style="rounded=0;whiteSpace=wrap;html=1;fontSize=16;fillColor=#ffe6cc;strokeColor=#d79b00;" parent="1" vertex="1">
          <mxGeometry x="365" y="654" width="275" height="56" as="geometry" />
        </mxCell>
      </root>
    </mxGraphModel>
  </diagram>
  <diagram id="o2f6pYbS8f3DpcIWIxRh" name="AI工具模块划分">
    <mxGraphModel dx="1426" dy="826" grid="1" gridSize="10" guides="1" tooltips="1" connect="1" arrows="1" fold="1" page="1" pageScale="1" pageWidth="827" pageHeight="1169" math="0" shadow="0">
      <root>
        <mxCell id="0" />
        <mxCell id="1" parent="0" />
        <mxCell id="RQ_euWFESxdrtDxo2Dzb-6" value="" style="rounded=0;whiteSpace=wrap;html=1;fontSize=16;dashed=1;" parent="1" vertex="1">
          <mxGeometry x="430" y="270" width="220" height="310" as="geometry" />
        </mxCell>
        <mxCell id="RQ_euWFESxdrtDxo2Dzb-3" value="&lt;span style=&quot;font-size: 16px&quot;&gt;引擎服务&lt;/span&gt;" style="rounded=1;whiteSpace=wrap;html=1;fontSize=24;fillColor=#dae8fc;strokeColor=#6c8ebf;" parent="1" vertex="1">
          <mxGeometry x="460" y="300" width="160" height="60" as="geometry" />
        </mxCell>
        <mxCell id="RQ_euWFESxdrtDxo2Dzb-4" value="&lt;span style=&quot;font-size: 16px&quot;&gt;引擎服务&lt;/span&gt;" style="rounded=1;whiteSpace=wrap;html=1;fontSize=24;fillColor=#dae8fc;strokeColor=#6c8ebf;" parent="1" vertex="1">
          <mxGeometry x="460" y="390" width="160" height="60" as="geometry" />
        </mxCell>
        <mxCell id="RQ_euWFESxdrtDxo2Dzb-5" value="&lt;span style=&quot;font-size: 16px&quot;&gt;引擎服务&lt;/span&gt;" style="rounded=1;whiteSpace=wrap;html=1;fontSize=24;fillColor=#dae8fc;strokeColor=#6c8ebf;" parent="1" vertex="1">
          <mxGeometry x="460" y="480" width="160" height="60" as="geometry" />
        </mxCell>
        <mxCell id="RQ_euWFESxdrtDxo2Dzb-7" value="" style="rounded=0;whiteSpace=wrap;html=1;fontSize=16;dashed=1;" parent="1" vertex="1">
          <mxGeometry x="820" y="265" width="227" height="310" as="geometry" />
        </mxCell>
        <mxCell id="RQ_euWFESxdrtDxo2Dzb-8" value="&lt;span style=&quot;font-size: 16px&quot;&gt;GPU机器&lt;/span&gt;" style="rounded=1;whiteSpace=wrap;html=1;fontSize=24;fillColor=#ffe6cc;strokeColor=#d79b00;" parent="1" vertex="1">
          <mxGeometry x="857" y="295" width="160" height="60" as="geometry" />
        </mxCell>
        <mxCell id="RQ_euWFESxdrtDxo2Dzb-9" value="&lt;span style=&quot;font-size: 16px&quot;&gt;GPU机器&lt;/span&gt;" style="rounded=1;whiteSpace=wrap;html=1;fontSize=24;fillColor=#ffe6cc;strokeColor=#d79b00;" parent="1" vertex="1">
          <mxGeometry x="857" y="385" width="160" height="60" as="geometry" />
        </mxCell>
        <mxCell id="RQ_euWFESxdrtDxo2Dzb-10" value="&lt;span style=&quot;font-size: 16px&quot;&gt;GPU机器&lt;/span&gt;" style="rounded=1;whiteSpace=wrap;html=1;fontSize=24;fillColor=#ffe6cc;strokeColor=#d79b00;" parent="1" vertex="1">
          <mxGeometry x="857" y="475" width="160" height="60" as="geometry" />
        </mxCell>
        <mxCell id="RQ_euWFESxdrtDxo2Dzb-11" value="Agent Server" style="rounded=0;whiteSpace=wrap;html=1;fontSize=12;fillColor=#f5f5f5;fontColor=#333333;strokeColor=#666666;" parent="1" vertex="1">
          <mxGeometry x="530" y="350" width="110" height="30" as="geometry" />
        </mxCell>
        <mxCell id="RQ_euWFESxdrtDxo2Dzb-12" value="Agent Server" style="rounded=0;whiteSpace=wrap;html=1;fontSize=12;fillColor=#f5f5f5;fontColor=#333333;strokeColor=#666666;" parent="1" vertex="1">
          <mxGeometry x="530" y="440" width="110" height="30" as="geometry" />
        </mxCell>
        <mxCell id="RQ_euWFESxdrtDxo2Dzb-13" value="Agent Server" style="rounded=0;whiteSpace=wrap;html=1;fontSize=12;fillColor=#f5f5f5;fontColor=#333333;strokeColor=#666666;" parent="1" vertex="1">
          <mxGeometry x="530" y="530" width="110" height="30" as="geometry" />
        </mxCell>
        <mxCell id="RQ_euWFESxdrtDxo2Dzb-14" value="Agent Client" style="rounded=0;whiteSpace=wrap;html=1;fontSize=12;fillColor=#f5f5f5;fontColor=#333333;strokeColor=#666666;" parent="1" vertex="1">
          <mxGeometry x="834" y="345" width="110" height="30" as="geometry" />
        </mxCell>
        <mxCell id="RQ_euWFESxdrtDxo2Dzb-15" value="Agent Client" style="rounded=0;whiteSpace=wrap;html=1;fontSize=11;fillColor=#f5f5f5;fontColor=#333333;strokeColor=#666666;" parent="1" vertex="1">
          <mxGeometry x="834" y="435" width="110" height="30" as="geometry" />
        </mxCell>
        <mxCell id="RQ_euWFESxdrtDxo2Dzb-16" value="Agent Client" style="rounded=0;whiteSpace=wrap;html=1;fontSize=11;fillColor=#f5f5f5;fontColor=#333333;strokeColor=#666666;" parent="1" vertex="1">
          <mxGeometry x="834" y="525" width="110" height="30" as="geometry" />
        </mxCell>
        <mxCell id="RQ_euWFESxdrtDxo2Dzb-29" value="" style="rounded=0;whiteSpace=wrap;html=1;fontSize=16;dashed=1;" parent="1" vertex="1">
          <mxGeometry x="42" y="270" width="220" height="310" as="geometry" />
        </mxCell>
        <mxCell id="RQ_euWFESxdrtDxo2Dzb-30" value="" style="shape=flexArrow;endArrow=classic;startArrow=classic;html=1;rounded=0;fontSize=16;entryX=-0.015;entryY=0.552;entryDx=0;entryDy=0;entryPerimeter=0;" parent="1" edge="1">
          <mxGeometry width="100" height="100" relative="1" as="geometry">
            <mxPoint x="651" y="422" as="sourcePoint" />
            <mxPoint x="817.5949999999998" y="423.1200000000001" as="targetPoint" />
          </mxGeometry>
        </mxCell>
        <mxCell id="RQ_euWFESxdrtDxo2Dzb-31" value="netty长连接" style="edgeLabel;html=1;align=center;verticalAlign=middle;resizable=0;points=[];fontSize=14;" parent="RQ_euWFESxdrtDxo2Dzb-30" vertex="1" connectable="0">
          <mxGeometry x="-0.2018" y="1" relative="1" as="geometry">
            <mxPoint x="14" y="-19" as="offset" />
          </mxGeometry>
        </mxCell>
        <mxCell id="RQ_euWFESxdrtDxo2Dzb-33" value="1）远程执行&lt;br&gt;2）日志上报&lt;br&gt;3）机器指标上报&lt;br&gt;4）Agent心跳" style="text;html=1;strokeColor=none;fillColor=none;align=left;verticalAlign=middle;whiteSpace=wrap;rounded=0;fontSize=12;" parent="1" vertex="1">
          <mxGeometry x="681" y="425" width="130" height="100" as="geometry" />
        </mxCell>
        <mxCell id="RQ_euWFESxdrtDxo2Dzb-34" value="&lt;span style=&quot;font-size: 16px&quot;&gt;业务服务&lt;/span&gt;" style="rounded=1;whiteSpace=wrap;html=1;fontSize=24;fillColor=#d5e8d4;strokeColor=#82b366;" parent="1" vertex="1">
          <mxGeometry x="72" y="300" width="160" height="60" as="geometry" />
        </mxCell>
        <mxCell id="RQ_euWFESxdrtDxo2Dzb-35" value="&lt;span style=&quot;font-size: 16px&quot;&gt;业务服务&lt;/span&gt;" style="rounded=1;whiteSpace=wrap;html=1;fontSize=24;fillColor=#d5e8d4;strokeColor=#82b366;" parent="1" vertex="1">
          <mxGeometry x="72" y="390" width="160" height="60" as="geometry" />
        </mxCell>
        <mxCell id="RQ_euWFESxdrtDxo2Dzb-36" value="&lt;span style=&quot;font-size: 16px&quot;&gt;业务服务&lt;/span&gt;" style="rounded=1;whiteSpace=wrap;html=1;fontSize=24;fillColor=#d5e8d4;strokeColor=#82b366;" parent="1" vertex="1">
          <mxGeometry x="72" y="480" width="160" height="60" as="geometry" />
        </mxCell>
        <mxCell id="RQ_euWFESxdrtDxo2Dzb-37" value="" style="shape=flexArrow;endArrow=classic;startArrow=classic;html=1;rounded=0;fontSize=16;entryX=-0.015;entryY=0.552;entryDx=0;entryDy=0;entryPerimeter=0;" parent="1" edge="1">
          <mxGeometry width="100" height="100" relative="1" as="geometry">
            <mxPoint x="263.4" y="424.44" as="sourcePoint" />
            <mxPoint x="429.995" y="425.5599999999999" as="targetPoint" />
          </mxGeometry>
        </mxCell>
        <mxCell id="RQ_euWFESxdrtDxo2Dzb-38" value="dubbo通信" style="edgeLabel;html=1;align=center;verticalAlign=middle;resizable=0;points=[];fontSize=14;" parent="RQ_euWFESxdrtDxo2Dzb-37" vertex="1" connectable="0">
          <mxGeometry x="-0.2018" y="1" relative="1" as="geometry">
            <mxPoint x="14" y="-19" as="offset" />
          </mxGeometry>
        </mxCell>
      </root>
    </mxGraphModel>
  </diagram>
  <diagram id="ZrsSscxwKACskIR-edWd" name="WEB层设计">
    <mxGraphModel dx="1426" dy="826" grid="1" gridSize="10" guides="1" tooltips="1" connect="1" arrows="1" fold="1" page="1" pageScale="1" pageWidth="827" pageHeight="1169" math="0" shadow="0">
      <root>
        <mxCell id="0" />
        <mxCell id="1" parent="0" />
        <mxCell id="Qbkk_Fu-gahxkN_gNeAR-14" value="" style="rounded=1;whiteSpace=wrap;html=1;fontSize=12;arcSize=3;dashed=1;fillColor=#f5f5f5;fontColor=#333333;strokeColor=#666666;" parent="1" vertex="1">
          <mxGeometry x="190" y="60" width="569" height="490" as="geometry" />
        </mxCell>
        <mxCell id="Qbkk_Fu-gahxkN_gNeAR-7" style="edgeStyle=orthogonalEdgeStyle;rounded=0;orthogonalLoop=1;jettySize=auto;html=1;entryX=0.221;entryY=0;entryDx=0;entryDy=0;entryPerimeter=0;fontSize=12;" parent="1" source="Qbkk_Fu-gahxkN_gNeAR-1" target="Qbkk_Fu-gahxkN_gNeAR-3" edge="1">
          <mxGeometry relative="1" as="geometry" />
        </mxCell>
        <mxCell id="Qbkk_Fu-gahxkN_gNeAR-1" value="aiplatform-dubbo" style="rounded=0;whiteSpace=wrap;html=1;fontSize=12;" parent="1" vertex="1">
          <mxGeometry x="379" y="190" width="150" height="60" as="geometry" />
        </mxCell>
        <mxCell id="Qbkk_Fu-gahxkN_gNeAR-8" style="edgeStyle=orthogonalEdgeStyle;rounded=0;orthogonalLoop=1;jettySize=auto;html=1;entryX=0.779;entryY=0;entryDx=0;entryDy=0;entryPerimeter=0;fontSize=12;" parent="1" source="Qbkk_Fu-gahxkN_gNeAR-2" target="Qbkk_Fu-gahxkN_gNeAR-3" edge="1">
          <mxGeometry relative="1" as="geometry" />
        </mxCell>
        <mxCell id="Qbkk_Fu-gahxkN_gNeAR-2" value="aiplatform-adapter" style="rounded=0;whiteSpace=wrap;html=1;fontSize=12;" parent="1" vertex="1">
          <mxGeometry x="569" y="190" width="150" height="60" as="geometry" />
        </mxCell>
        <mxCell id="Qbkk_Fu-gahxkN_gNeAR-10" style="edgeStyle=orthogonalEdgeStyle;rounded=0;orthogonalLoop=1;jettySize=auto;html=1;fontSize=12;" parent="1" source="Qbkk_Fu-gahxkN_gNeAR-3" target="Qbkk_Fu-gahxkN_gNeAR-4" edge="1">
          <mxGeometry relative="1" as="geometry" />
        </mxCell>
        <mxCell id="Qbkk_Fu-gahxkN_gNeAR-13" style="edgeStyle=orthogonalEdgeStyle;rounded=0;orthogonalLoop=1;jettySize=auto;html=1;fontSize=12;exitX=0.007;exitY=0.65;exitDx=0;exitDy=0;exitPerimeter=0;" parent="1" source="Qbkk_Fu-gahxkN_gNeAR-1" target="Qbkk_Fu-gahxkN_gNeAR-9" edge="1">
          <mxGeometry relative="1" as="geometry" />
        </mxCell>
        <mxCell id="Qbkk_Fu-gahxkN_gNeAR-3" value="aiplatform-app" style="rounded=0;whiteSpace=wrap;html=1;fontSize=12;" parent="1" vertex="1">
          <mxGeometry x="379" y="287" width="340" height="60" as="geometry" />
        </mxCell>
        <mxCell id="Qbkk_Fu-gahxkN_gNeAR-4" value="aiplatform-domain" style="rounded=0;whiteSpace=wrap;html=1;fontSize=12;" parent="1" vertex="1">
          <mxGeometry x="439" y="380" width="220" height="60" as="geometry" />
        </mxCell>
        <mxCell id="Qbkk_Fu-gahxkN_gNeAR-20" style="edgeStyle=orthogonalEdgeStyle;rounded=0;orthogonalLoop=1;jettySize=auto;html=1;entryX=0.5;entryY=1;entryDx=0;entryDy=0;fontSize=16;" parent="1" source="Qbkk_Fu-gahxkN_gNeAR-5" target="Qbkk_Fu-gahxkN_gNeAR-4" edge="1">
          <mxGeometry relative="1" as="geometry" />
        </mxCell>
        <mxCell id="Qbkk_Fu-gahxkN_gNeAR-5" value="aiplatform-infrastructure" style="rounded=0;whiteSpace=wrap;html=1;fontSize=12;" parent="1" vertex="1">
          <mxGeometry x="379" y="470" width="340" height="60" as="geometry" />
        </mxCell>
        <mxCell id="Qbkk_Fu-gahxkN_gNeAR-9" value="aiplatform-client" style="rounded=0;whiteSpace=wrap;html=1;fontSize=12;" parent="1" vertex="1">
          <mxGeometry x="209" y="380" width="150" height="60" as="geometry" />
        </mxCell>
        <mxCell id="Qbkk_Fu-gahxkN_gNeAR-12" value="" style="endArrow=classic;html=1;rounded=0;fontSize=12;entryX=0.932;entryY=0.017;entryDx=0;entryDy=0;entryPerimeter=0;" parent="1" edge="1">
          <mxGeometry width="50" height="50" relative="1" as="geometry">
            <mxPoint x="696" y="348" as="sourcePoint" />
            <mxPoint x="695.8800000000001" y="469.02" as="targetPoint" />
          </mxGeometry>
        </mxCell>
        <mxCell id="Qbkk_Fu-gahxkN_gNeAR-15" value="业务层架构" style="text;html=1;strokeColor=none;fillColor=none;align=center;verticalAlign=middle;whiteSpace=wrap;rounded=0;dashed=1;fontSize=16;fontStyle=1" parent="1" vertex="1">
          <mxGeometry x="419" y="560" width="90" height="30" as="geometry" />
        </mxCell>
        <mxCell id="Qbkk_Fu-gahxkN_gNeAR-16" value="" style="rounded=1;whiteSpace=wrap;html=1;fontSize=12;arcSize=3;dashed=1;fillColor=#f5f5f5;fontColor=#333333;strokeColor=#666666;" parent="1" vertex="1">
          <mxGeometry x="780" y="60" width="180" height="490" as="geometry" />
        </mxCell>
        <mxCell id="Qbkk_Fu-gahxkN_gNeAR-17" value="基础层组件" style="text;html=1;strokeColor=none;fillColor=none;align=center;verticalAlign=middle;whiteSpace=wrap;rounded=0;dashed=1;fontSize=16;fontStyle=1" parent="1" vertex="1">
          <mxGeometry x="820" y="555" width="90" height="30" as="geometry" />
        </mxCell>
        <mxCell id="Qbkk_Fu-gahxkN_gNeAR-18" value="COLA组件..." style="rounded=0;whiteSpace=wrap;html=1;fontSize=12;" parent="1" vertex="1">
          <mxGeometry x="800" y="80" width="141" height="60" as="geometry" />
        </mxCell>
        <mxCell id="Qbkk_Fu-gahxkN_gNeAR-21" value="Titans组件..." style="rounded=0;whiteSpace=wrap;html=1;fontSize=12;" parent="1" vertex="1">
          <mxGeometry x="801" y="190" width="140" height="60" as="geometry" />
        </mxCell>
        <mxCell id="Qbkk_Fu-gahxkN_gNeAR-25" style="edgeStyle=orthogonalEdgeStyle;rounded=0;orthogonalLoop=1;jettySize=auto;html=1;fontSize=16;" parent="1" source="Qbkk_Fu-gahxkN_gNeAR-24" target="Qbkk_Fu-gahxkN_gNeAR-1" edge="1">
          <mxGeometry relative="1" as="geometry" />
        </mxCell>
        <mxCell id="Qbkk_Fu-gahxkN_gNeAR-26" style="edgeStyle=orthogonalEdgeStyle;rounded=0;orthogonalLoop=1;jettySize=auto;html=1;fontSize=16;" parent="1" source="Qbkk_Fu-gahxkN_gNeAR-24" target="Qbkk_Fu-gahxkN_gNeAR-2" edge="1">
          <mxGeometry relative="1" as="geometry" />
        </mxCell>
        <mxCell id="Qbkk_Fu-gahxkN_gNeAR-24" value="starter" style="rounded=0;whiteSpace=wrap;html=1;fontSize=12;" parent="1" vertex="1">
          <mxGeometry x="469" y="80" width="150" height="60" as="geometry" />
        </mxCell>
        <mxCell id="xhWwiBkkAcJBfOEBK7rB-2" value="aiplatform-common" style="rounded=0;whiteSpace=wrap;html=1;fontSize=12;" vertex="1" parent="1">
          <mxGeometry x="801" y="300" width="140" height="60" as="geometry" />
        </mxCell>
      </root>
    </mxGraphModel>
  </diagram>
  <diagram id="Dc8Ue13W-kPgcR2ck22W" name="AI核心调度层">
    <mxGraphModel dx="1426" dy="826" grid="1" gridSize="10" guides="1" tooltips="1" connect="1" arrows="1" fold="1" page="1" pageScale="1" pageWidth="827" pageHeight="1169" math="0" shadow="0">
      <root>
        <mxCell id="0" />
        <mxCell id="1" parent="0" />
        <mxCell id="JzUetAmjL8JOkTKwIAFM-9" value="" style="rounded=1;whiteSpace=wrap;html=1;arcSize=8;dashed=1;" vertex="1" parent="1">
          <mxGeometry x="740" y="270" width="340" height="100" as="geometry" />
        </mxCell>
        <mxCell id="JzUetAmjL8JOkTKwIAFM-25" value="" style="rounded=1;whiteSpace=wrap;html=1;arcSize=8;dashed=1;" vertex="1" parent="1">
          <mxGeometry x="750" y="280" width="340" height="100" as="geometry" />
        </mxCell>
        <mxCell id="JzUetAmjL8JOkTKwIAFM-26" value="" style="rounded=1;whiteSpace=wrap;html=1;arcSize=8;dashed=1;" vertex="1" parent="1">
          <mxGeometry x="760" y="290" width="340" height="100" as="geometry" />
        </mxCell>
        <mxCell id="JzUetAmjL8JOkTKwIAFM-8" value="" style="rounded=1;whiteSpace=wrap;html=1;arcSize=8;dashed=1;" vertex="1" parent="1">
          <mxGeometry x="170" y="270" width="320" height="100" as="geometry" />
        </mxCell>
        <mxCell id="JzUetAmjL8JOkTKwIAFM-23" value="" style="rounded=1;whiteSpace=wrap;html=1;arcSize=8;dashed=1;" vertex="1" parent="1">
          <mxGeometry x="180" y="280" width="320" height="100" as="geometry" />
        </mxCell>
        <mxCell id="JzUetAmjL8JOkTKwIAFM-24" value="" style="rounded=1;whiteSpace=wrap;html=1;arcSize=8;dashed=1;" vertex="1" parent="1">
          <mxGeometry x="190" y="290" width="320" height="100" as="geometry" />
        </mxCell>
        <mxCell id="JzUetAmjL8JOkTKwIAFM-16" style="edgeStyle=none;rounded=0;orthogonalLoop=1;jettySize=auto;html=1;" edge="1" parent="1" source="JzUetAmjL8JOkTKwIAFM-9" target="JzUetAmjL8JOkTKwIAFM-4">
          <mxGeometry relative="1" as="geometry" />
        </mxCell>
        <mxCell id="JzUetAmjL8JOkTKwIAFM-17" value="注册" style="edgeLabel;html=1;align=center;verticalAlign=middle;resizable=0;points=[];" vertex="1" connectable="0" parent="JzUetAmjL8JOkTKwIAFM-16">
          <mxGeometry x="0.0728" y="1" relative="1" as="geometry">
            <mxPoint as="offset" />
          </mxGeometry>
        </mxCell>
        <mxCell id="JzUetAmjL8JOkTKwIAFM-2" value="Zookeeper" style="shape=cylinder3;whiteSpace=wrap;html=1;boundedLbl=1;backgroundOutline=1;size=15;" vertex="1" parent="1">
          <mxGeometry x="550.51" y="150" width="110" height="80" as="geometry" />
        </mxCell>
        <mxCell id="JzUetAmjL8JOkTKwIAFM-3" value="Zookeeper" style="shape=cylinder3;whiteSpace=wrap;html=1;boundedLbl=1;backgroundOutline=1;size=15;" vertex="1" parent="1">
          <mxGeometry x="560.51" y="160" width="110" height="80" as="geometry" />
        </mxCell>
        <mxCell id="JzUetAmjL8JOkTKwIAFM-18" style="edgeStyle=none;rounded=0;orthogonalLoop=1;jettySize=auto;html=1;" edge="1" parent="1" source="JzUetAmjL8JOkTKwIAFM-4" target="JzUetAmjL8JOkTKwIAFM-8">
          <mxGeometry relative="1" as="geometry" />
        </mxCell>
        <mxCell id="JzUetAmjL8JOkTKwIAFM-19" value="拉取" style="edgeLabel;html=1;align=center;verticalAlign=middle;resizable=0;points=[];" vertex="1" connectable="0" parent="JzUetAmjL8JOkTKwIAFM-18">
          <mxGeometry x="-0.1273" relative="1" as="geometry">
            <mxPoint x="1" as="offset" />
          </mxGeometry>
        </mxCell>
        <mxCell id="JzUetAmjL8JOkTKwIAFM-4" value="Zookeeper" style="shape=cylinder3;whiteSpace=wrap;html=1;boundedLbl=1;backgroundOutline=1;size=15;" vertex="1" parent="1">
          <mxGeometry x="570.51" y="170" width="110" height="80" as="geometry" />
        </mxCell>
        <mxCell id="JzUetAmjL8JOkTKwIAFM-5" value="Agent Client" style="rounded=0;whiteSpace=wrap;html=1;" vertex="1" parent="1">
          <mxGeometry x="790" y="310" width="120" height="60" as="geometry" />
        </mxCell>
        <mxCell id="JzUetAmjL8JOkTKwIAFM-11" value="" style="endArrow=classic;startArrow=classic;html=1;rounded=0;entryX=0;entryY=0.5;entryDx=0;entryDy=0;" edge="1" parent="1" source="JzUetAmjL8JOkTKwIAFM-1" target="JzUetAmjL8JOkTKwIAFM-5">
          <mxGeometry width="50" height="50" relative="1" as="geometry">
            <mxPoint x="510" y="320" as="sourcePoint" />
            <mxPoint x="490" y="350" as="targetPoint" />
          </mxGeometry>
        </mxCell>
        <mxCell id="JzUetAmjL8JOkTKwIAFM-1" value="Agent Server" style="rounded=0;whiteSpace=wrap;html=1;" vertex="1" parent="1">
          <mxGeometry x="360" y="310" width="120" height="60" as="geometry" />
        </mxCell>
        <mxCell id="JzUetAmjL8JOkTKwIAFM-20" value="Dubbo Service" style="rounded=0;whiteSpace=wrap;html=1;" vertex="1" parent="1">
          <mxGeometry x="210" y="310" width="120" height="60" as="geometry" />
        </mxCell>
        <mxCell id="JzUetAmjL8JOkTKwIAFM-27" value="Script Engine" style="rounded=0;whiteSpace=wrap;html=1;" vertex="1" parent="1">
          <mxGeometry x="940" y="310" width="120" height="60" as="geometry" />
        </mxCell>
        <mxCell id="JzUetAmjL8JOkTKwIAFM-35" style="edgeStyle=none;rounded=0;orthogonalLoop=1;jettySize=auto;html=1;" edge="1" parent="1" source="JzUetAmjL8JOkTKwIAFM-28" target="JzUetAmjL8JOkTKwIAFM-27">
          <mxGeometry relative="1" as="geometry" />
        </mxCell>
        <mxCell id="JzUetAmjL8JOkTKwIAFM-28" value="" style="rounded=1;whiteSpace=wrap;html=1;arcSize=8;dashed=1;" vertex="1" parent="1">
          <mxGeometry x="440" y="520" width="440" height="110" as="geometry" />
        </mxCell>
        <mxCell id="JzUetAmjL8JOkTKwIAFM-29" value="引擎服务端" style="text;html=1;strokeColor=none;fillColor=none;align=center;verticalAlign=middle;whiteSpace=wrap;rounded=0;dashed=1;fontStyle=1" vertex="1" parent="1">
          <mxGeometry x="295" y="240" width="70" height="30" as="geometry" />
        </mxCell>
        <mxCell id="JzUetAmjL8JOkTKwIAFM-30" value="引擎客户端" style="text;html=1;strokeColor=none;fillColor=none;align=center;verticalAlign=middle;whiteSpace=wrap;rounded=0;dashed=1;fontStyle=1" vertex="1" parent="1">
          <mxGeometry x="885" y="240" width="70" height="30" as="geometry" />
        </mxCell>
        <mxCell id="JzUetAmjL8JOkTKwIAFM-31" value="训练镜像" style="rounded=0;whiteSpace=wrap;html=1;" vertex="1" parent="1">
          <mxGeometry x="464" y="545" width="120" height="60" as="geometry" />
        </mxCell>
        <mxCell id="JzUetAmjL8JOkTKwIAFM-32" value="推理镜像" style="rounded=0;whiteSpace=wrap;html=1;" vertex="1" parent="1">
          <mxGeometry x="600" y="545" width="120" height="60" as="geometry" />
        </mxCell>
        <mxCell id="JzUetAmjL8JOkTKwIAFM-33" value="工具镜像" style="rounded=0;whiteSpace=wrap;html=1;" vertex="1" parent="1">
          <mxGeometry x="740" y="545" width="120" height="60" as="geometry" />
        </mxCell>
        <mxCell id="JzUetAmjL8JOkTKwIAFM-34" value="镜像仓库" style="text;html=1;strokeColor=none;fillColor=none;align=center;verticalAlign=middle;whiteSpace=wrap;rounded=0;dashed=1;fontStyle=1" vertex="1" parent="1">
          <mxGeometry x="620" y="490" width="60" height="30" as="geometry" />
        </mxCell>
        <mxCell id="JzUetAmjL8JOkTKwIAFM-36" value="zk集群" style="text;html=1;strokeColor=none;fillColor=none;align=center;verticalAlign=middle;whiteSpace=wrap;rounded=0;dashed=1;fontStyle=1" vertex="1" parent="1">
          <mxGeometry x="584" y="250" width="70" height="30" as="geometry" />
        </mxCell>
        <mxCell id="JzUetAmjL8JOkTKwIAFM-37" value="pull镜像" style="text;html=1;strokeColor=none;fillColor=none;align=center;verticalAlign=middle;whiteSpace=wrap;rounded=0;dashed=1;" vertex="1" parent="1">
          <mxGeometry x="840" y="440" width="60" height="30" as="geometry" />
        </mxCell>
        <mxCell id="JzUetAmjL8JOkTKwIAFM-38" value="netty长连接&lt;br&gt;1）发送执行脚本&lt;br&gt;2）上报数据" style="text;html=1;strokeColor=none;fillColor=none;align=left;verticalAlign=middle;whiteSpace=wrap;rounded=0;dashed=1;" vertex="1" parent="1">
          <mxGeometry x="580" y="350" width="95" height="30" as="geometry" />
        </mxCell>
        <mxCell id="JzUetAmjL8JOkTKwIAFM-40" value="服务层" style="rounded=0;whiteSpace=wrap;html=1;" vertex="1" parent="1">
          <mxGeometry x="190" y="90" width="120" height="60" as="geometry" />
        </mxCell>
        <mxCell id="JzUetAmjL8JOkTKwIAFM-42" value="服务层" style="rounded=0;whiteSpace=wrap;html=1;" vertex="1" parent="1">
          <mxGeometry x="200" y="100" width="120" height="60" as="geometry" />
        </mxCell>
        <mxCell id="JzUetAmjL8JOkTKwIAFM-44" style="edgeStyle=none;rounded=0;orthogonalLoop=1;jettySize=auto;html=1;" edge="1" parent="1" source="JzUetAmjL8JOkTKwIAFM-43" target="JzUetAmjL8JOkTKwIAFM-20">
          <mxGeometry relative="1" as="geometry" />
        </mxCell>
        <mxCell id="JzUetAmjL8JOkTKwIAFM-43" value="服务层" style="rounded=0;whiteSpace=wrap;html=1;" vertex="1" parent="1">
          <mxGeometry x="210" y="110" width="120" height="60" as="geometry" />
        </mxCell>
        <mxCell id="JzUetAmjL8JOkTKwIAFM-46" style="edgeStyle=none;rounded=0;orthogonalLoop=1;jettySize=auto;html=1;entryX=0;entryY=0.5;entryDx=0;entryDy=0;" edge="1" parent="1" source="JzUetAmjL8JOkTKwIAFM-45" target="JzUetAmjL8JOkTKwIAFM-40">
          <mxGeometry relative="1" as="geometry" />
        </mxCell>
        <mxCell id="JzUetAmjL8JOkTKwIAFM-45" value="后台用户" style="shape=umlActor;verticalLabelPosition=bottom;verticalAlign=top;html=1;outlineConnect=0;" vertex="1" parent="1">
          <mxGeometry x="80" y="90" width="30" height="60" as="geometry" />
        </mxCell>
        <mxCell id="JzUetAmjL8JOkTKwIAFM-48" style="edgeStyle=none;rounded=0;orthogonalLoop=1;jettySize=auto;html=1;" edge="1" parent="1" source="JzUetAmjL8JOkTKwIAFM-47" target="JzUetAmjL8JOkTKwIAFM-28">
          <mxGeometry relative="1" as="geometry" />
        </mxCell>
        <mxCell id="JzUetAmjL8JOkTKwIAFM-49" value="push镜像" style="edgeLabel;html=1;align=center;verticalAlign=middle;resizable=0;points=[];" vertex="1" connectable="0" parent="JzUetAmjL8JOkTKwIAFM-48">
          <mxGeometry x="-0.2167" y="1" relative="1" as="geometry">
            <mxPoint x="-4" y="16" as="offset" />
          </mxGeometry>
        </mxCell>
        <mxCell id="JzUetAmjL8JOkTKwIAFM-47" value="AI算法人员" style="shape=umlActor;verticalLabelPosition=bottom;verticalAlign=top;html=1;outlineConnect=0;" vertex="1" parent="1">
          <mxGeometry x="170" y="545" width="30" height="60" as="geometry" />
        </mxCell>
        <mxCell id="JzUetAmjL8JOkTKwIAFM-53" value="" style="shape=document;whiteSpace=wrap;html=1;boundedLbl=1;" vertex="1" parent="1">
          <mxGeometry x="890" y="30" width="120" height="80" as="geometry" />
        </mxCell>
        <mxCell id="JzUetAmjL8JOkTKwIAFM-54" value="" style="shape=document;whiteSpace=wrap;html=1;boundedLbl=1;" vertex="1" parent="1">
          <mxGeometry x="900" y="40" width="120" height="80" as="geometry" />
        </mxCell>
        <mxCell id="JzUetAmjL8JOkTKwIAFM-55" value="分布式文件系统" style="shape=document;whiteSpace=wrap;html=1;boundedLbl=1;" vertex="1" parent="1">
          <mxGeometry x="910" y="50" width="120" height="80" as="geometry" />
        </mxCell>
        <mxCell id="JzUetAmjL8JOkTKwIAFM-56" style="edgeStyle=none;rounded=0;orthogonalLoop=1;jettySize=auto;html=1;entryX=0;entryY=0.75;entryDx=0;entryDy=0;" edge="1" parent="1" source="JzUetAmjL8JOkTKwIAFM-43" target="JzUetAmjL8JOkTKwIAFM-53">
          <mxGeometry relative="1" as="geometry" />
        </mxCell>
        <mxCell id="JzUetAmjL8JOkTKwIAFM-58" value="拉取模型或样本" style="text;html=1;strokeColor=none;fillColor=none;align=center;verticalAlign=middle;whiteSpace=wrap;rounded=0;" vertex="1" parent="1">
          <mxGeometry x="980" y="175" width="100" height="30" as="geometry" />
        </mxCell>
        <mxCell id="JzUetAmjL8JOkTKwIAFM-59" value="" style="endArrow=classic;startArrow=classic;html=1;rounded=0;entryX=0.417;entryY=0.875;entryDx=0;entryDy=0;entryPerimeter=0;" edge="1" parent="1" source="JzUetAmjL8JOkTKwIAFM-27" target="JzUetAmjL8JOkTKwIAFM-55">
          <mxGeometry width="50" height="50" relative="1" as="geometry">
            <mxPoint x="590" y="340" as="sourcePoint" />
            <mxPoint x="960" y="130" as="targetPoint" />
          </mxGeometry>
        </mxCell>
        <mxCell id="JzUetAmjL8JOkTKwIAFM-60" value="上传样本" style="text;html=1;strokeColor=none;fillColor=none;align=center;verticalAlign=middle;whiteSpace=wrap;rounded=0;" vertex="1" parent="1">
          <mxGeometry x="540" y="80" width="60" height="30" as="geometry" />
        </mxCell>
      </root>
    </mxGraphModel>
  </diagram>
  <diagram id="oFroNrVCNfHmKcnLcuEW" name="数据模型V1">
    <mxGraphModel dx="1426" dy="826" grid="1" gridSize="10" guides="1" tooltips="1" connect="1" arrows="1" fold="1" page="1" pageScale="1" pageWidth="827" pageHeight="1169" math="0" shadow="0">
      <root>
        <mxCell id="0" />
        <mxCell id="1" parent="0" />
        <mxCell id="qv2wfHxsJmC7hr_I_UP7-2" value="用户&lt;br&gt;（碳元素）" style="rounded=1;whiteSpace=wrap;html=1;fillColor=#f5f5f5;fontColor=#333333;strokeColor=#666666;" vertex="1" parent="1">
          <mxGeometry x="230" y="90" width="120" height="60" as="geometry" />
        </mxCell>
        <mxCell id="qv2wfHxsJmC7hr_I_UP7-4" value="机器" style="rounded=1;whiteSpace=wrap;html=1;fillColor=#dae8fc;strokeColor=#6c8ebf;" vertex="1" parent="1">
          <mxGeometry x="440" y="90" width="120" height="60" as="geometry" />
        </mxCell>
        <mxCell id="qv2wfHxsJmC7hr_I_UP7-5" value="脚本" style="rounded=1;whiteSpace=wrap;html=1;fillColor=#dae8fc;strokeColor=#6c8ebf;" vertex="1" parent="1">
          <mxGeometry x="640" y="90" width="120" height="60" as="geometry" />
        </mxCell>
        <mxCell id="qv2wfHxsJmC7hr_I_UP7-6" value="项目" style="rounded=1;whiteSpace=wrap;html=1;fillColor=#dae8fc;strokeColor=#6c8ebf;" vertex="1" parent="1">
          <mxGeometry x="850" y="90" width="120" height="60" as="geometry" />
        </mxCell>
        <mxCell id="qv2wfHxsJmC7hr_I_UP7-7" value="基础模块" style="text;html=1;strokeColor=none;fillColor=none;align=center;verticalAlign=middle;whiteSpace=wrap;rounded=0;fontStyle=1" vertex="1" parent="1">
          <mxGeometry x="100" y="105" width="60" height="30" as="geometry" />
        </mxCell>
        <mxCell id="qv2wfHxsJmC7hr_I_UP7-8" value="数据集模块" style="text;html=1;strokeColor=none;fillColor=none;align=center;verticalAlign=middle;whiteSpace=wrap;rounded=0;fontStyle=1" vertex="1" parent="1">
          <mxGeometry x="100" y="230" width="70" height="30" as="geometry" />
        </mxCell>
        <mxCell id="qv2wfHxsJmC7hr_I_UP7-9" value="数据集" style="rounded=1;whiteSpace=wrap;html=1;fillColor=#ffe6cc;strokeColor=#d79b00;" vertex="1" parent="1">
          <mxGeometry x="230" y="215" width="120" height="60" as="geometry" />
        </mxCell>
        <mxCell id="qv2wfHxsJmC7hr_I_UP7-10" value="样本" style="rounded=1;whiteSpace=wrap;html=1;fillColor=#ffe6cc;strokeColor=#d79b00;" vertex="1" parent="1">
          <mxGeometry x="640" y="215" width="120" height="60" as="geometry" />
        </mxCell>
        <mxCell id="qv2wfHxsJmC7hr_I_UP7-11" value="标签" style="rounded=1;whiteSpace=wrap;html=1;fillColor=#ffe6cc;strokeColor=#d79b00;" vertex="1" parent="1">
          <mxGeometry x="850" y="215" width="120" height="60" as="geometry" />
        </mxCell>
        <mxCell id="qv2wfHxsJmC7hr_I_UP7-12" value="模型模块" style="text;html=1;strokeColor=none;fillColor=none;align=center;verticalAlign=middle;whiteSpace=wrap;rounded=0;fontStyle=1" vertex="1" parent="1">
          <mxGeometry x="100" y="360" width="60" height="30" as="geometry" />
        </mxCell>
        <mxCell id="qv2wfHxsJmC7hr_I_UP7-13" value="任务" style="rounded=1;whiteSpace=wrap;html=1;fillColor=#fff2cc;strokeColor=#d6b656;" vertex="1" parent="1">
          <mxGeometry x="230" y="345" width="120" height="60" as="geometry" />
        </mxCell>
        <mxCell id="qv2wfHxsJmC7hr_I_UP7-14" value="样本集" style="rounded=1;whiteSpace=wrap;html=1;fillColor=#ffe6cc;strokeColor=#d79b00;" vertex="1" parent="1">
          <mxGeometry x="440" y="215" width="120" height="60" as="geometry" />
        </mxCell>
        <mxCell id="qv2wfHxsJmC7hr_I_UP7-16" value="1. 先填训练任务信息&lt;br&gt;2. 选训练机器&lt;br&gt;&lt;div&gt;&lt;span&gt;3. 选样本集并完成下载&lt;/span&gt;&lt;/div&gt;&lt;div&gt;&lt;span&gt;4. 选脚本&lt;/span&gt;&lt;/div&gt;&lt;div&gt;&lt;span&gt;5. 开始训练&lt;/span&gt;&lt;/div&gt;" style="text;html=1;strokeColor=none;fillColor=none;align=left;verticalAlign=middle;whiteSpace=wrap;rounded=0;" vertex="1" parent="1">
          <mxGeometry x="220" y="420" width="140" height="80" as="geometry" />
        </mxCell>
        <mxCell id="qv2wfHxsJmC7hr_I_UP7-17" value="任务详情" style="rounded=1;whiteSpace=wrap;html=1;fillColor=#fff2cc;strokeColor=#d6b656;" vertex="1" parent="1">
          <mxGeometry x="440" y="345" width="120" height="60" as="geometry" />
        </mxCell>
        <mxCell id="qv2wfHxsJmC7hr_I_UP7-18" value="模型" style="rounded=1;whiteSpace=wrap;html=1;fillColor=#fff2cc;strokeColor=#d6b656;" vertex="1" parent="1">
          <mxGeometry x="640" y="345" width="120" height="60" as="geometry" />
        </mxCell>
        <mxCell id="qv2wfHxsJmC7hr_I_UP7-19" value="推理模块" style="text;html=1;strokeColor=none;fillColor=none;align=center;verticalAlign=middle;whiteSpace=wrap;rounded=0;fontStyle=1" vertex="1" parent="1">
          <mxGeometry x="100" y="560" width="60" height="30" as="geometry" />
        </mxCell>
        <mxCell id="qv2wfHxsJmC7hr_I_UP7-20" value="服务" style="rounded=1;whiteSpace=wrap;html=1;fillColor=#d5e8d4;strokeColor=#82b366;" vertex="1" parent="1">
          <mxGeometry x="230" y="545" width="120" height="60" as="geometry" />
        </mxCell>
        <mxCell id="qv2wfHxsJmC7hr_I_UP7-21" value="1. 先填推理服务信息&lt;br&gt;2. 选推理机器&lt;br&gt;&lt;div&gt;&lt;span&gt;3. 选模型并下载&lt;/span&gt;&lt;/div&gt;&lt;div&gt;&lt;span&gt;4. 选脚本&lt;/span&gt;&lt;/div&gt;&lt;div&gt;&lt;span&gt;5. 启动服务&lt;/span&gt;&lt;/div&gt;" style="text;html=1;strokeColor=none;fillColor=none;align=left;verticalAlign=middle;whiteSpace=wrap;rounded=0;" vertex="1" parent="1">
          <mxGeometry x="230" y="620" width="140" height="80" as="geometry" />
        </mxCell>
        <mxCell id="qv2wfHxsJmC7hr_I_UP7-22" value="服务详情" style="rounded=1;whiteSpace=wrap;html=1;fillColor=#d5e8d4;strokeColor=#82b366;" vertex="1" parent="1">
          <mxGeometry x="440" y="545" width="120" height="60" as="geometry" />
        </mxCell>
        <mxCell id="qv2wfHxsJmC7hr_I_UP7-23" value="服务测试、监控&lt;br&gt;（选填）" style="rounded=1;whiteSpace=wrap;html=1;fillColor=#f5f5f5;strokeColor=#666666;fontColor=#333333;" vertex="1" parent="1">
          <mxGeometry x="640" y="545" width="120" height="60" as="geometry" />
        </mxCell>
      </root>
    </mxGraphModel>
  </diagram>
  <diagram id="Mzy47MJlHIxaCsiE_83w" name="物理部署">
    <mxGraphModel dx="1426" dy="826" grid="1" gridSize="10" guides="1" tooltips="1" connect="1" arrows="1" fold="1" page="1" pageScale="1" pageWidth="827" pageHeight="1169" math="0" shadow="0">
      <root>
        <mxCell id="0" />
        <mxCell id="1" parent="0" />
        <mxCell id="oQ_m0CPWqK_qsp5vnRlu-1" value="" style="rounded=1;whiteSpace=wrap;html=1;" vertex="1" parent="1">
          <mxGeometry x="190" y="360" width="120" height="60" as="geometry" />
        </mxCell>
        <mxCell id="oQ_m0CPWqK_qsp5vnRlu-2" value="&amp;nbsp;用户" style="shape=umlActor;verticalLabelPosition=bottom;verticalAlign=top;html=1;outlineConnect=0;" vertex="1" parent="1">
          <mxGeometry x="235" y="210" width="30" height="60" as="geometry" />
        </mxCell>
      </root>
    </mxGraphModel>
  </diagram>
</mxfile>
